<svg width="114" height="112" viewBox="0 0 114 112" fill="none" xmlns="http://www.w3.org/2000/svg">
<path fill-rule="evenodd" clip-rule="evenodd" d="M51.8988 0.658419C42.4186 3.16074 36.3345 12.7862 38.3133 22.1505C39.1375 26.0488 40.3414 28.3822 42.9576 31.1497C46.7285 35.1387 51.3368 37.1548 56.6837 37.1548C62.2835 37.1548 66.5977 35.3072 70.4981 31.2381C77.4863 23.9482 77.3102 12.7254 70.0954 5.5913C65.1401 0.691678 58.5459 -1.09601 51.8988 0.658419ZM84.0832 28.9314C81.8041 30.2382 80.5607 32.3672 80.5607 34.9632C80.5607 39.9661 85.7577 43.2312 90.638 41.2947C92.0051 40.752 97.9544 47.0967 99.9855 51.2633C101.662 54.7026 103.058 59.8503 102.482 60.4761C102.307 60.6665 100.395 60.7649 98.2312 60.6949L94.2984 60.5676L93.9418 58.8687C92.5316 52.1525 86.6808 45.8595 79.4008 43.2294C76.5251 42.1901 76.4665 42.1874 56.7782 42.1874C37.0899 42.1874 37.0314 42.1901 34.1556 43.2294C26.8756 45.8595 21.0266 52.1508 19.6147 58.8687L19.2576 60.5676L10.4756 60.7864C1.90828 60.9999 1.67318 61.0306 0.846794 62.0384C0.381035 62.6065 0 63.4708 0 63.9587C0 65.6392 9.79779 91.6099 10.7315 92.4046C11.4679 93.0313 12.4965 93.1704 16.3907 93.1704H21.1499L20.0795 86.7155C18.3314 76.1727 19.0047 72.512 23.417 68.5796C27.1005 65.2965 26.2138 65.3814 56.7782 65.3814C87.3426 65.3814 86.4559 65.2965 90.1394 68.5796C94.5517 72.512 95.225 76.1727 93.4769 86.7155L92.4065 93.1704H96.9568C99.4595 93.1704 101.83 93.0479 102.225 92.8987C103.294 92.4939 103.82 91.2834 108.699 77.9998C111.16 71.3003 113.359 65.6317 113.587 65.4033C113.814 65.1744 114 64.4033 114 63.6891C114 62.9754 113.888 62.5014 113.751 62.6362C113.615 62.7714 113.025 62.4104 112.441 61.8341C111.857 61.2577 111.07 60.7864 110.693 60.7864C110.316 60.7864 110.001 60.7369 109.992 60.677C108.546 50.4511 104.391 42.6675 97.3848 37.0568C95.512 35.557 94.4985 34.4253 94.4922 33.828C94.4798 32.6683 92.8523 30.2819 91.2994 29.1472C89.4678 27.8089 86.2106 27.7113 84.0832 28.9314ZM0.102911 64.2874C0.102911 65.1298 0.194288 65.4746 0.305626 65.0532C0.417409 64.6318 0.417409 63.943 0.305626 63.5215C0.194288 63.1001 0.102911 63.4449 0.102911 64.2874ZM29.4781 75.8647C28.8793 76.4555 28.3891 77.2528 28.3891 77.6366C28.3891 79.398 33.3004 109.478 33.7116 110.237C33.9671 110.708 34.5575 111.294 35.0237 111.54C36.1846 112.153 77.3718 112.153 78.5327 111.54C78.9989 111.294 79.5893 110.708 79.8448 110.237C80.256 109.478 85.1673 79.398 85.1673 77.6366C85.1673 77.2528 84.6772 76.4555 84.0783 75.8647L82.9898 74.7903H30.5666L29.4781 75.8647Z" fill="white"/>
</svg>
